<?xml version="1.0" encoding="UTF-8" standalone="no"?>
<!-- Created with Inkscape (http://www.inkscape.org/) -->

<svg
   xmlns:dc="http://purl.org/dc/elements/1.1/"
   xmlns:cc="http://creativecommons.org/ns#"
   xmlns:rdf="http://www.w3.org/1999/02/22-rdf-syntax-ns#"
   xmlns:svg="http://www.w3.org/2000/svg"
   xmlns="http://www.w3.org/2000/svg"
   xmlns:sodipodi="http://sodipodi.sourceforge.net/DTD/sodipodi-0.dtd"
   xmlns:inkscape="http://www.inkscape.org/namespaces/inkscape"
   width="200"
   height="362"
   id="svg2"
   version="1.1"
   inkscape:version="0.92.2 5c3e80d, 2017-08-06"
   sodipodi:docname="muscle-19.svg">
  <defs
     id="defs4" />
  <sodipodi:namedview
     id="base"
     pagecolor="#ffffff"
     bordercolor="#666666"
     borderopacity="1.0"
     inkscape:pageopacity="0.0"
     inkscape:pageshadow="2"
     inkscape:zoom="1.979899"
     inkscape:cx="68.73423"
     inkscape:cy="205.55431"
     inkscape:document-units="px"
     inkscape:current-layer="layer1"
     showgrid="false"
     fit-margin-top="0"
     fit-margin-left="0"
     fit-margin-right="0"
     fit-margin-bottom="0"
     inkscape:window-width="954"
     inkscape:window-height="756"
     inkscape:window-x="714"
     inkscape:window-y="135"
     inkscape:window-maximized="0" />
  <metadata
     id="metadata7">
    <rdf:RDF>
      <cc:Work
         rdf:about="">
        <dc:format>image/svg+xml</dc:format>
        <dc:type
           rdf:resource="http://purl.org/dc/dcmitype/StillImage" />
        <dc:title></dc:title>
      </cc:Work>
    </rdf:RDF>
  </metadata>
  <g
     inkscape:label="Ebene 1"
     inkscape:groupmode="layer"
     id="layer1"
     transform="translate(-395.71431,-323.50506)">
    <path
       sodipodi:nodetypes="caazccsc"
       inkscape:connector-curvature="0"
       id="path2992"
       d="m 537.86653,453.64591 c -1.98778,2.6319 0.27079,10.75103 2.00761,15.84636 2.09349,6.14168 5.01092,12.40343 9.94204,17.16566 3.77862,3.64921 10.68525,7.35167 14.25362,7.96923 3.56836,0.61759 3.27315,-9.60305 1.80927,-12.69974 -1.23326,-5.26505 -2.31628,-11.15808 -5.03599,-17.93087 -2.85759,-7.02048 -6.63506,-9.78474 -11.67001,-12.45044 -3.29095,-1.74237 -9.92673,-2.32231 -11.30654,2.0998 z"
       style="opacity:0.52424239;fill:#fc0000;fill-opacity:1;stroke:none;stroke-width:1.16380179" />
    <path
       sodipodi:nodetypes="caazccsc"
       inkscape:connector-curvature="0"
       id="path2992-9"
       d="m 450.27423,453.93617 c 1.7365,2.03321 -0.96548,10.29093 -2.96793,15.54885 -2.41368,6.33764 -5.62661,12.98445 -10.67517,18.68137 -3.86863,4.36543 -10.74502,9.5217 -14.21281,10.95355 -3.46778,1.43186 -2.51362,-8.36033 -0.90443,-11.65247 1.52994,-5.30019 2.95679,-11.16218 6.01332,-18.24834 3.20523,-7.3544 7.01468,-10.87776 12.02542,-14.60492 3.27511,-2.43617 9.68652,-4.55805 10.7216,-0.67804 z"
       style="opacity:0.52424239;fill:#fc0000;fill-opacity:1;stroke:none;stroke-width:1.14888418"
       inkscape:transform-center-x="-7.325529"
       inkscape:transform-center-y="-11.914363" />
  </g>
</svg>
